<?xml version="1.0" standalone="no"?>
<!DOCTYPE svg PUBLIC "-//W3C//DTD SVG 20010904//EN"
 "http://www.w3.org/TR/2001/REC-SVG-20010904/DTD/svg10.dtd">
<svg version="1.0" xmlns="http://www.w3.org/2000/svg"
 width="1000.000000pt" height="1000.000000pt" viewBox="0 0 1000.000000 1000.000000"
 preserveAspectRatio="xMidYMid meet">

<g transform="translate(0.000000,1000.000000) scale(0.100000,-0.100000)"
fill="#000000" stroke="none">
<path d="M3968 6004 c-40 -13 -76 -43 -251 -218 -219 -216 -230 -232 -207
-301 17 -51 62 -85 113 -85 23 1 51 6 62 13 11 7 73 64 139 127 65 63 123 115
128 115 6 0 18 -26 28 -57 10 -32 39 -91 64 -132 37 -60 54 -77 86 -90 84 -34
170 25 170 115 0 20 -17 62 -44 108 -34 59 -51 106 -76 211 -35 145 -48 171
-97 195 -37 18 -53 18 -115 -1z"/>
<path d="M5577 5984 c-90 -28 -161 -126 -251 -349 -15 -38 -36 -86 -47 -106
-10 -20 -19 -42 -19 -49 0 -7 -7 -27 -15 -46 -8 -19 -22 -51 -31 -71 -9 -21
-28 -63 -44 -93 -15 -30 -30 -67 -33 -81 -4 -15 -24 -65 -46 -112 -37 -81 -61
-113 -61 -85 -1 20 -17 134 -34 235 -9 50 -16 102 -16 115 -1 49 -7 94 -14
110 -4 9 -5 22 -1 28 4 6 2 16 -3 23 -5 7 -10 19 -11 27 -5 51 -8 67 -13 76
-4 5 -9 27 -13 49 -31 175 -65 217 -220 275 -135 51 -270 43 -331 -22 -26 -26
-28 -35 -27 -101 0 -39 3 -83 6 -97 17 -79 83 -411 127 -640 90 -466 134 -578
264 -662 83 -53 141 -69 213 -58 52 9 63 15 124 76 37 37 71 79 74 93 7 29 92
205 167 344 27 51 65 128 85 172 20 44 39 82 43 85 4 3 24 37 45 75 20 39 48
84 60 101 13 16 36 59 53 95 16 35 46 89 67 119 109 160 175 290 175 347 0 48
-36 94 -94 122 -53 24 -110 26 -179 5z"/>
<path d="M6550 5933 c-52 -8 -106 -22 -118 -31 -13 -9 -38 -25 -54 -34 -18
-10 -39 -34 -49 -59 -17 -36 -18 -52 -10 -114 9 -78 48 -155 78 -155 9 0 27
-10 39 -21 19 -18 36 -22 101 -23 70 -1 84 2 143 33 139 73 160 108 142 234
-10 62 -15 74 -54 114 -38 38 -98 75 -117 72 -3 -1 -49 -8 -101 -16z m203 -63
c42 -41 49 -53 58 -109 18 -115 -4 -151 -140 -221 -56 -30 -73 -34 -134 -33
-55 2 -74 6 -91 22 -12 12 -30 21 -39 21 -25 0 -68 75 -73 128 -2 26 -6 54 -9
63 -7 22 33 109 50 109 7 0 27 12 44 26 17 14 41 28 53 30 203 36 206 36 281
-36z"/>
<path d="M7450 5873 c-63 -9 -167 -37 -185 -49 -11 -8 -27 -14 -36 -14 -9 0
-24 -9 -34 -20 -10 -11 -23 -20 -29 -20 -11 0 -101 -92 -123 -126 -87 -133
-67 -220 54 -243 57 -11 151 9 166 35 4 8 17 14 27 14 11 0 38 18 61 40 23 22
47 40 52 40 13 0 77 20 99 31 34 17 76 -9 95 -59 13 -34 14 -47 5 -50 -7 -2
-12 -14 -12 -26 0 -22 -44 -56 -73 -56 -8 0 -55 -40 -105 -88 -81 -79 -93 -96
-121 -167 -65 -169 -24 -265 113 -265 89 0 148 45 171 128 15 59 42 98 84 121
113 62 212 127 242 159 44 46 67 122 67 222 1 100 -20 168 -70 229 -39 48
-151 131 -176 131 -7 0 -12 5 -12 10 0 6 -13 10 -29 10 -17 0 -32 4 -35 9 -5
8 -147 12 -196 4z"/>
<path d="M2770 5785 c-123 -14 -249 -54 -360 -117 -98 -55 -245 -193 -274
-258 -6 -14 -19 -34 -28 -44 -10 -11 -18 -25 -18 -30 -1 -6 -9 -29 -20 -51
-11 -22 -19 -47 -20 -56 0 -9 -6 -29 -14 -45 -18 -38 -32 -254 -16 -254 7 0 9
-8 5 -20 -9 -28 28 -147 74 -239 72 -147 270 -287 436 -308 22 -3 42 -9 45
-13 8 -11 119 -20 125 -10 3 5 34 9 68 9 85 0 282 52 368 97 38 20 69 40 69
45 0 5 14 15 30 24 44 23 74 93 66 153 -12 96 -93 118 -227 61 -130 -54 -189
-69 -276 -69 -45 0 -84 4 -87 9 -3 5 -18 12 -33 16 -38 9 -123 73 -123 92 0 9
-17 43 -39 77 -35 56 -39 70 -50 174 -12 112 -11 114 13 167 38 84 85 146 122
161 18 8 44 25 57 38 31 31 128 59 198 57 32 -1 81 -11 110 -22 30 -11 68 -25
84 -31 17 -6 35 -14 40 -18 33 -25 187 -38 227 -20 63 29 88 141 49 226 -19
41 -95 104 -127 104 -7 0 -14 5 -14 10 0 9 -26 23 -95 51 -49 20 -179 49 -213
48 -20 -1 -89 -7 -152 -14z"/>
<path d="M6490 5419 c-85 -37 -121 -143 -94 -273 8 -37 14 -86 13 -109 0 -23
2 -85 6 -137 6 -88 7 -107 4 -151 -2 -36 55 -305 67 -320 8 -8 17 -30 20 -47
4 -17 13 -37 20 -43 8 -6 14 -18 14 -25 0 -22 45 -89 72 -106 14 -9 45 -19 69
-23 39 -6 49 -3 87 24 23 17 42 38 42 47 0 8 6 27 14 42 8 15 16 64 17 107 2
44 5 85 8 90 7 12 10 96 14 345 3 170 0 212 -20 325 -35 194 -41 215 -71 244
-25 25 -33 26 -132 28 -86 2 -113 -2 -150 -18z"/>
<path d="M5816 5371 c-4 -6 -18 -11 -32 -11 -38 0 -151 -55 -164 -80 -15 -28
0 -40 52 -40 20 0 39 -4 43 -9 3 -5 19 -12 35 -16 17 -4 30 -8 30 -11 0 -8
-39 -64 -110 -159 -71 -95 -92 -126 -121 -185 -7 -14 -21 -36 -30 -50 -9 -14
-49 -89 -89 -168 -85 -170 -98 -230 -59 -276 16 -18 37 -29 64 -32 35 -5 51 2
135 52 167 100 203 116 272 120 71 5 71 6 141 -78 52 -62 119 -111 207 -152
66 -31 109 -33 142 -6 52 41 64 191 24 300 -20 54 -48 175 -62 265 -11 74 -26
154 -34 180 -4 17 -16 66 -26 110 -10 44 -24 94 -32 110 -17 36 -81 105 -97
105 -7 0 -27 8 -46 18 -41 20 -232 31 -243 13z m158 -542 c15 -77 25 -143 23
-146 -3 -2 -21 0 -41 5 -19 6 -45 8 -56 5 -24 -6 -100 16 -100 29 0 12 54 116
79 153 12 17 21 36 21 44 0 14 29 49 41 50 3 1 18 -62 33 -140z"/>
<path d="M3807 5363 c-2 -1 -27 -5 -55 -8 -217 -20 -386 -193 -399 -410 -12
-189 61 -332 216 -423 81 -48 197 -72 346 -73 182 -1 316 56 299 128 -8 35
-45 75 -90 99 -19 10 -34 22 -34 26 0 13 -20 9 -36 -6 -8 -8 -49 -22 -91 -32
-84 -18 -128 -13 -219 28 -38 16 -114 89 -114 109 0 4 19 5 43 4 23 -2 169
-11 325 -21 256 -14 325 -14 309 2 -3 3 -1 18 3 34 4 16 6 31 2 34 -3 3 -7 39
-9 79 -4 82 -22 140 -68 212 -64 100 -167 174 -276 195 -30 6 -61 14 -69 17
-17 7 -78 11 -83 6z m74 -237 c19 -8 46 -27 61 -43 25 -26 63 -101 56 -109 -5
-4 -303 15 -335 22 -31 6 -29 18 8 64 57 70 139 96 210 66z"/>
<path d="M7295 4805 c-64 -28 -108 -108 -107 -192 1 -94 37 -162 101 -189 77
-32 172 -10 241 56 39 38 48 53 53 94 15 105 11 121 -41 174 -53 54 -97 72
-172 71 -25 0 -59 -7 -75 -14z m149 -6 c25 -7 57 -29 87 -60 l48 -50 -4 -70
c-5 -78 -23 -112 -78 -151 -66 -47 -137 -59 -198 -34 -61 26 -99 93 -100 179
-1 52 19 103 60 150 36 42 111 57 185 36z"/>
</g>
</svg>
